<svg width="52" height="52" viewBox="0 0 52 52" fill="none" xmlns="http://www.w3.org/2000/svg">
<path d="M26 0C11.6371 0 0 11.6371 0 26C0 40.3629 11.6371 52 26 52C40.3629 52 52 40.3629 52 26C52 11.6371 40.3629 0 26 0ZM26 10.0645C31.0952 10.0645 35.2258 14.1952 35.2258 19.2903C35.2258 24.3855 31.0952 28.5161 26 28.5161C20.9048 28.5161 16.7742 24.3855 16.7742 19.2903C16.7742 14.1952 20.9048 10.0645 26 10.0645ZM26 46.129C19.846 46.129 14.3315 43.3403 10.6411 38.979C12.6121 35.2677 16.4702 32.7097 20.9677 32.7097C21.2194 32.7097 21.471 32.7516 21.7121 32.825C23.075 33.2653 24.5008 33.5484 26 33.5484C27.4992 33.5484 28.9355 33.2653 30.2879 32.825C30.529 32.7516 30.7806 32.7097 31.0323 32.7097C35.5298 32.7097 39.3879 35.2677 41.3589 38.979C37.6685 43.3403 32.154 46.129 26 46.129Z" fill="#F3F1FF"/>
</svg>
