<svg width="189" height="189" viewBox="0 0 189 189" fill="none" xmlns="http://www.w3.org/2000/svg">
<path id="Vector" d="M5.90625 106.312C2.65781 106.312 0 108.97 0 112.219V124.031C0 127.28 2.65781 129.938 5.90625 129.938H47.25V106.312H5.90625ZM186.416 38.7598L150.277 2.58398C148.616 0.922852 146.364 0 144.002 0H141.75V47.25H189V44.9982C189 42.6727 188.077 40.4209 186.416 38.7598ZM129.938 50.2031V0H56.1094C51.1998 0 47.25 3.9498 47.25 8.85938V106.312H94.5V82.2445C94.5 76.9658 100.886 74.3449 104.614 78.0732L139.904 113.695C142.341 116.169 142.341 120.118 139.904 122.555L104.578 158.14C100.849 161.868 94.4631 159.247 94.4631 153.969V129.938H47.25V180.141C47.25 185.05 51.1998 189 56.1094 189H180.141C185.05 189 189 185.05 189 180.141V59.0625H138.797C133.924 59.0625 129.938 55.0758 129.938 50.2031Z" fill="#A5A6F6"/>
</svg>
